<?xml version="1.0" encoding="utf-8"?>
<!-- Generator: Adobe Illustrator 24.1.0, SVG Export Plug-In . SVG Version: 6.00 Build 0)  -->
<svg version="1.1" id="Layer_1" xmlns="http://www.w3.org/2000/svg" xmlns:xlink="http://www.w3.org/1999/xlink" x="0px" y="0px"
	 viewBox="0 0 595.28 578.23" style="enable-background:new 0 0 595.28 578.23;" xml:space="preserve">
<style type="text/css">
	.st0{display:none;}
	.st1{display:inline;fill:#FFFFFF;}
	.st2{display:inline;fill:#0EAFE6;}
	.st3{clip-path:url(#SVGID_3_);fill:url(#SVGID_4_);}
	.st4{clip-path:url(#SVGID_7_);fill:url(#SVGID_8_);}
	.st5{clip-path:url(#SVGID_11_);fill:url(#SVGID_12_);}
	.st6{clip-path:url(#SVGID_15_);fill:url(#SVGID_16_);}
	.st7{clip-path:url(#SVGID_19_);fill:url(#SVGID_20_);}
	.st8{clip-path:url(#SVGID_23_);fill:url(#SVGID_24_);}
	.st9{fill:url(#SVGID_25_);}
	.st10{fill:none;stroke:url(#SVGID_26_);stroke-width:3;stroke-miterlimit:10;}
</style>
<g class="st0">
	<path class="st1" d="M270.68,551.65C97,551.65-44.3,410.35-44.3,236.66C-44.3,62.98,97-78.32,270.68-78.32
		c173.68,0,314.98,141.3,314.98,314.98C585.66,410.35,444.36,551.65,270.68,551.65"/>
	<path class="st2" d="M270.68-74.87c42.06,0,82.86,8.24,121.26,24.48c37.1,15.69,70.42,38.15,99.03,66.77
		c28.61,28.61,51.08,61.93,66.77,99.03c16.25,38.4,24.48,79.2,24.48,121.26s-8.23,82.86-24.48,121.26
		c-15.69,37.1-38.15,70.42-66.77,99.03c-28.61,28.61-61.93,51.08-99.03,66.77c-38.4,16.24-79.2,24.48-121.26,24.48
		c-42.06,0-82.86-8.24-121.26-24.48c-37.1-15.69-70.41-38.16-99.03-66.77c-28.61-28.61-51.08-61.93-66.77-99.03
		c-16.24-38.4-24.48-79.2-24.48-121.26s8.24-82.86,24.48-121.26c15.69-37.1,38.15-70.41,66.77-99.03
		c28.61-28.61,61.93-51.08,99.03-66.77C187.82-66.64,228.62-74.87,270.68-74.87 M270.68-81.77C94.82-81.77-47.75,60.8-47.75,236.66
		c0,175.86,142.57,318.43,318.43,318.43c175.86,0,318.43-142.57,318.43-318.43C589.11,60.8,446.54-81.77,270.68-81.77"/>
</g>
<g>
	<g>
		<g>
			<defs>
				<path id="SVGID_1_" d="M258.95,258.73c59.25,29.43,64.75,76.11,38.49,97.92c-21.05,17.48-62.5,19-113.06-17.11
					c-5.16-3.69-10.32-7.37-15.48-11.06c6.71,10.58,13.43,21.16,20.15,31.73c21.35,33.64,45.3,68.91,80.69,77.45
					c25.03,6.03,48.94-3.02,70.85-20.01c8.03-6.23,15.8-13.52,23.26-21.54c27.66-78.24-14.83-102.87-104.88-137.38H258.95z"/>
			</defs>
			<linearGradient id="SVGID_2_" gradientUnits="userSpaceOnUse" x1="168.8938" y1="349.1367" x2="372.2034" y2="349.1367">
				<stop  offset="0" style="stop-color:#8AD1CA"/>
				<stop  offset="0.3226" style="stop-color:#09AED2"/>
				<stop  offset="0.6989" style="stop-color:#1573B8"/>
				<stop  offset="1" style="stop-color:#1573B8"/>
			</linearGradient>
			<use xlink:href="#SVGID_1_"  style="overflow:visible;fill:url(#SVGID_2_);"/>
			<clipPath id="SVGID_3_">
				<use xlink:href="#SVGID_1_"  style="overflow:visible;"/>
			</clipPath>
			
				<linearGradient id="SVGID_4_" gradientUnits="userSpaceOnUse" x1="-122.2567" y1="719.2209" x2="-120.5337" y2="719.2209" gradientTransform="matrix(117.9706 0 0 -117.9706 14591.5859 85198.1328)">
				<stop  offset="0" style="stop-color:#8AD1CA"/>
				<stop  offset="0.3226" style="stop-color:#09AED2"/>
				<stop  offset="0.6989" style="stop-color:#1573B8"/>
				<stop  offset="1" style="stop-color:#1573B8"/>
			</linearGradient>
			<rect x="168.89" y="258.73" class="st3" width="222.61" height="184.97"/>
		</g>
		<g>
			<defs>
				<path id="SVGID_5_" d="M241.72,251.27c6.19,2.33,11.92,4.83,17.23,7.47h0.01c90.05,34.51,132.54,59.14,104.88,137.38
					c35.06-37.68,63.25-91.2,80.09-123.94c-13.1-15.65-29.56-27.97-47.63-38.01c-8.49-4.72-17.34-8.93-26.37-12.76
					c-4.72-2-9.47-3.89-14.26-5.69c-67.51-21.48-95.76-3.65-175.48-29.67c-33.19-10.83-55.99-23.2-62.2-51.82
					C122.26,198.75,182.93,229.13,241.72,251.27"/>
			</defs>
			<linearGradient id="SVGID_6_" gradientUnits="userSpaceOnUse" x1="117.9911" y1="265.1677" x2="443.9336" y2="265.1677">
				<stop  offset="0" style="stop-color:#8AD1CA"/>
				<stop  offset="0.3226" style="stop-color:#09AED2"/>
				<stop  offset="0.6989" style="stop-color:#1573B8"/>
				<stop  offset="1" style="stop-color:#1573B8"/>
			</linearGradient>
			<use xlink:href="#SVGID_5_"  style="overflow:visible;fill:url(#SVGID_6_);"/>
			<clipPath id="SVGID_7_">
				<use xlink:href="#SVGID_5_"  style="overflow:visible;"/>
			</clipPath>
			
				<linearGradient id="SVGID_8_" gradientUnits="userSpaceOnUse" x1="-121.8254" y1="717.6541" x2="-120.1018" y2="717.6541" gradientTransform="matrix(-137.9076 -228.8052 -228.8052 137.9076 147807.25 -126373.3984)">
				<stop  offset="0" style="stop-color:#8AD1CA"/>
				<stop  offset="0.3226" style="stop-color:#09AED2"/>
				<stop  offset="0.6989" style="stop-color:#1573B8"/>
				<stop  offset="1" style="stop-color:#1573B8"/>
			</linearGradient>
			<polygon class="st4" points="204.85,540.22 2.2,204.01 357.08,-9.89 559.72,326.33 			"/>
		</g>
		<g>
			<defs>
				<path id="SVGID_9_" d="M127.43,104.06c-3.72,5.53-6.56,11.73-8.38,18.64c-2.02,7.68-1.51,12.02,1.27,19.55
					c8.49,23.02,29.97,34.03,59.87,43.79c79.73,26.03,107.98,8.19,175.48,29.67c-39.48-14.86-80.51-23.54-108.7-34.86
					c-49.34-19.82-46.02-54.65,0.36-75.9c32.69-14.98,82.94-18.1,130.75,7.9l-0.02-0.05c-44.06-28.5-104.11-45.57-155.54-45.57
					C180.74,67.23,144.63,78.5,127.43,104.06"/>
			</defs>
			<linearGradient id="SVGID_10_" gradientUnits="userSpaceOnUse" x1="117.8149" y1="141.467" x2="378.0859" y2="141.467">
				<stop  offset="0" style="stop-color:#8AD1CA"/>
				<stop  offset="0.3226" style="stop-color:#09AED2"/>
				<stop  offset="0.6989" style="stop-color:#1573B8"/>
				<stop  offset="1" style="stop-color:#1573B8"/>
			</linearGradient>
			<use xlink:href="#SVGID_9_"  style="overflow:visible;fill:url(#SVGID_10_);"/>
			<clipPath id="SVGID_11_">
				<use xlink:href="#SVGID_9_"  style="overflow:visible;"/>
			</clipPath>
			
				<linearGradient id="SVGID_12_" gradientUnits="userSpaceOnUse" x1="-121.0037" y1="718.3964" x2="-119.2803" y2="718.3964" gradientTransform="matrix(43.0169 -149.0754 -149.0754 -43.0169 112501.7422 13166.2314)">
				<stop  offset="0" style="stop-color:#8AD1CA"/>
				<stop  offset="0.3226" style="stop-color:#09AED2"/>
				<stop  offset="0.6989" style="stop-color:#1573B8"/>
				<stop  offset="1" style="stop-color:#1573B8"/>
			</linearGradient>
			<polygon class="st5" points="77.47,204.29 137.08,-2.32 417.64,78.64 358.02,285.25 			"/>
		</g>
		<g>
			<defs>
				<path id="SVGID_13_" d="M117.81,128.34c14.69-84.2,170.6-73.55,260.26-15.55l0.02,0.05c29.47,16.02,58.02,43.07,80.95,85.27
					c11.39-43.94,11.43-57.46,11.43-102.84c-17.04-31.53-109.48-58.33-195.45-58.33C193.4,36.95,117.61,61.12,117.81,128.34"/>
			</defs>
			<linearGradient id="SVGID_14_" gradientUnits="userSpaceOnUse" x1="117.8115" y1="117.5271" x2="470.4645" y2="117.5271">
				<stop  offset="0" style="stop-color:#8AD1CA"/>
				<stop  offset="0.3226" style="stop-color:#09AED2"/>
				<stop  offset="0.6989" style="stop-color:#1573B8"/>
				<stop  offset="1" style="stop-color:#1573B8"/>
			</linearGradient>
			<use xlink:href="#SVGID_13_"  style="overflow:visible;fill:url(#SVGID_14_);"/>
			<clipPath id="SVGID_15_">
				<use xlink:href="#SVGID_13_"  style="overflow:visible;"/>
			</clipPath>
			
				<linearGradient id="SVGID_16_" gradientUnits="userSpaceOnUse" x1="-122.2057" y1="718.9683" x2="-120.4825" y2="718.9683" gradientTransform="matrix(251.5718 0 0 -251.5718 30861.1074 180989.6719)">
				<stop  offset="0" style="stop-color:#8AD1CA"/>
				<stop  offset="0.3226" style="stop-color:#09AED2"/>
				<stop  offset="0.6989" style="stop-color:#1573B8"/>
				<stop  offset="1" style="stop-color:#1573B8"/>
			</linearGradient>
			<rect x="117.61" y="36.94" class="st6" width="352.85" height="161.17"/>
		</g>
		<g>
			<defs>
				<path id="SVGID_17_" d="M297.54,122.72c-43.85,7.52-38.22,56.79,12.41,58.14c14.36,0.39,29.73-0.52,40.93-2.01
					c47.87-6.34,86.43,9.94,100.38,30.75c-25.55-57.31-76.46-81.77-119.94-87.18c-4.79-0.6-10.58-1.03-16.69-1.03
					C309.02,121.38,303.14,121.75,297.54,122.72"/>
			</defs>
			<linearGradient id="SVGID_18_" gradientUnits="userSpaceOnUse" x1="267.9956" y1="165.4911" x2="451.2665" y2="165.4911">
				<stop  offset="0" style="stop-color:#8AD1CA"/>
				<stop  offset="0.3226" style="stop-color:#09AED2"/>
				<stop  offset="0.6989" style="stop-color:#1573B8"/>
				<stop  offset="1" style="stop-color:#1573B8"/>
			</linearGradient>
			<use xlink:href="#SVGID_17_"  style="overflow:visible;fill:url(#SVGID_18_);"/>
			<clipPath id="SVGID_19_">
				<use xlink:href="#SVGID_17_"  style="overflow:visible;"/>
			</clipPath>
			
				<linearGradient id="SVGID_20_" gradientUnits="userSpaceOnUse" x1="-123.1263" y1="719.655" x2="-121.4029" y2="719.655" gradientTransform="matrix(103.4973 74.2872 74.2872 -103.4973 -40464.3281 83723.5703)">
				<stop  offset="0" style="stop-color:#8AD1CA"/>
				<stop  offset="0.3226" style="stop-color:#09AED2"/>
				<stop  offset="0.6989" style="stop-color:#1573B8"/>
				<stop  offset="1" style="stop-color:#1573B8"/>
			</linearGradient>
			<polygon class="st7" points="320.87,27.79 493.05,151.38 384.09,303.19 211.91,179.6 			"/>
		</g>
		<g>
			<defs>
				<path id="SVGID_21_" d="M153.26,292.08c24.14,46.93,91.53,72.53,137.23,63.61c-46.52,1.11-62.14-28.19-78.84-60.56
					c-3.29-6.39-6.91-17.07-11.56-27.44c-8.06-18.03-20.47-25.8-31.32-25.8C151.27,241.89,137.84,262.1,153.26,292.08"/>
			</defs>
			<linearGradient id="SVGID_22_" gradientUnits="userSpaceOnUse" x1="146.4992" y1="299.6668" x2="290.4844" y2="299.6668">
				<stop  offset="0" style="stop-color:#8AD1CA"/>
				<stop  offset="0.3226" style="stop-color:#09AED2"/>
				<stop  offset="0.6989" style="stop-color:#1573B8"/>
				<stop  offset="1" style="stop-color:#1573B8"/>
			</linearGradient>
			<use xlink:href="#SVGID_21_"  style="overflow:visible;fill:url(#SVGID_22_);"/>
			<clipPath id="SVGID_23_">
				<use xlink:href="#SVGID_21_"  style="overflow:visible;"/>
			</clipPath>
			
				<linearGradient id="SVGID_24_" gradientUnits="userSpaceOnUse" x1="-123.5328" y1="719.0724" x2="-121.8095" y2="719.0724" gradientTransform="matrix(78.8499 75.9222 75.9222 -78.8499 -44716.4102 66306.2344)">
				<stop  offset="0" style="stop-color:#8AD1CA"/>
				<stop  offset="0.3226" style="stop-color:#09AED2"/>
				<stop  offset="0.6989" style="stop-color:#1573B8"/>
				<stop  offset="1" style="stop-color:#1573B8"/>
			</linearGradient>
			<polygon class="st8" points="211.28,165.62 351.8,300.93 217.05,440.87 76.53,305.57 			"/>
		</g>
	</g>
	<g>
		<g>
			<linearGradient id="SVGID_25_" gradientUnits="userSpaceOnUse" x1="514.5588" y1="52.854" x2="497.303" y2="53.2523">
				<stop  offset="0" style="stop-color:#8AD1CA"/>
				<stop  offset="0.3226" style="stop-color:#09AED2"/>
				<stop  offset="0.6989" style="stop-color:#1573B8"/>
				<stop  offset="1" style="stop-color:#1573B8"/>
			</linearGradient>
			<path class="st9" d="M497.59,40.59h7.8c5.08,0,8.72,1.82,8.72,7.01c0,4.98-3.64,7.37-8.72,7.37h-4.63V65.5h-3.17V40.59z
				 M504.93,52.4c3.88,0,6.01-1.57,6.01-4.8c0-3.28-2.14-4.44-6.01-4.44h-4.18v9.24H504.93z M504.76,54.1l2.48-1.64l7.6,13.04h-3.59
				L504.76,54.1z"/>
		</g>
		<linearGradient id="SVGID_26_" gradientUnits="userSpaceOnUse" x1="531.459" y1="52.464" x2="480.9775" y2="53.629">
			<stop  offset="0" style="stop-color:#8AD1CA"/>
			<stop  offset="0.3226" style="stop-color:#09AED2"/>
			<stop  offset="0.6989" style="stop-color:#1573B8"/>
			<stop  offset="1" style="stop-color:#1573B8"/>
		</linearGradient>
		<circle class="st10" cx="506.22" cy="53.05" r="23.75"/>
	</g>
</g>
</svg>
